<?xml version="1.0" encoding="UTF-8"?>
<svg width="512px" height="512px" viewBox="0 0 512 512" version="1.1" xmlns="http://www.w3.org/2000/svg" xmlns:xlink="http://www.w3.org/1999/xlink">
    <title>wlmdesk</title>
    <defs>
        <linearGradient x1="50%" y1="0%" x2="50%" y2="100%" id="linearGradient-1">
            <stop stop-color="#1F5DE1" offset="0%"></stop>
            <stop stop-color="#1047BB" offset="100%"></stop>
        </linearGradient>
        <circle id="path-2" cx="252" cy="252" r="252"></circle>
        <linearGradient x1="50%" y1="0%" x2="50%" y2="100%" id="linearGradient-4">
            <stop stop-color="#2868EE" offset="0%"></stop>
            <stop stop-color="#0D5BE3" offset="100%"></stop>
        </linearGradient>
        <linearGradient x1="50%" y1="0%" x2="50%" y2="100%" id="linearGradient-5">
            <stop stop-color="#1553D7" offset="0%"></stop>
            <stop stop-color="#06359B" offset="100%"></stop>
        </linearGradient>
    </defs>
    <g id="wlmdesk" stroke="none" fill="none">
        <g id="Group" stroke-width="1" fill-rule="evenodd" transform="translate(4, 4)">
            <mask id="mask-3" fill="white">
                <use xlink:href="#path-2"></use>
            </mask>
            <use id="Oval" fill="url(#linearGradient-1)" xlink:href="#path-2"></use>
            <path d="M252,5.68434189e-14 C252.325311,5.68434189e-14 252.650478,0.000616415203 252.975501,0.00184814131 L71.4058852,427.755053 C27.2171848,382.357396 0,320.357155 0,252 C0,112.824243 112.824243,5.68434189e-14 252,5.68434189e-14 Z" fill="url(#linearGradient-4)" mask="url(#mask-3)"></path>
            <path d="M258.495298,0.0820788562 C394.669187,3.52731492 504,114.995868 504,252 C504,317.670956 478.879868,377.474791 437.724258,422.32685 Z" fill="url(#linearGradient-5)" mask="url(#mask-3)"></path>
        </g>
        <polygon fill="#FFFFFF" fill-rule="evenodd" points="90 130 170.793443 325 255.954098 269.285714 342.206557 325 423 130.546218 376.598361 130.546218 270.147541 209.201681 302.901639 230.504202 349.84918 197.184874 322.008197 261.638655 257.045902 219.033613 191.537705 261.638655 163.696721 196.638655 210.644262 230.504202 242.852459 209.201681 135.855738 130"></polygon>
        <g stroke-width="1" fill-rule="evenodd" transform="translate(155, 352)" fill="#FFFFFF">
            <path d="M11.5425,65 L11.5425,56.03 L22.9175,56.03 C25.6908333,56.03 28.1175,55.4775 30.1975,54.3725 C32.2775,53.2675 33.8808333,51.6533333 35.0075,49.53 C36.1341667,47.4066667 36.6975,44.8933333 36.6975,41.99 C36.6975,39.0866667 36.1233333,36.595 34.975,34.515 C33.8266667,32.435 32.2233333,30.8316667 30.165,29.705 C28.1066667,28.5783333 25.6908333,28.015 22.9175,28.015 L11.2175,28.015 L11.2175,19.11 L23.0475,19.11 C26.5141667,19.11 29.71,19.6625 32.635,20.7675 C35.56,21.8725 38.1166667,23.4541667 40.305,25.5125 C42.4933333,27.5708333 44.1833333,29.9975 45.375,32.7925 C46.5666667,35.5875 47.1625,38.675 47.1625,42.055 C47.1625,45.3916667 46.5666667,48.4683333 45.375,51.285 C44.1833333,54.1016667 42.5041667,56.5283333 40.3375,58.565 C38.1708333,60.6016667 35.625,62.1833333 32.7,63.31 C29.775,64.4366667 26.6008333,65 23.1775,65 L11.5425,65 Z M4.6525,65 L4.6525,19.11 L14.8575,19.11 L14.8575,65 L4.6525,65 Z" fill-rule="nonzero"></path>
            <path d="M66.6625,65 L66.6625,19.11 L76.8675,19.11 L76.8675,65 L66.6625,65 Z M74.4625,65 L74.4625,56.16 L99.6175,56.16 L99.6175,65 L74.4625,65 Z M74.4625,45.825 L74.4625,37.31 L97.3425,37.31 L97.3425,45.825 L74.4625,45.825 Z M74.4625,27.885 L74.4625,19.11 L99.2925,19.11 L99.2925,27.885 L74.4625,27.885 Z" fill-rule="nonzero"></path>
            <path d="M132.2475,65.715 C128.4775,65.715 125.238333,65.0975 122.53,63.8625 C119.821667,62.6275 117.340833,60.7533333 115.0875,58.24 L121.7175,51.675 C123.190833,53.365 124.826667,54.6758333 126.625,55.6075 C128.423333,56.5391667 130.514167,57.005 132.8975,57.005 C135.064167,57.005 136.743333,56.615 137.935,55.835 C139.126667,55.055 139.7225,53.9716667 139.7225,52.585 C139.7225,51.3283333 139.3325,50.31 138.5525,49.53 C137.7725,48.75 136.743333,48.0783333 135.465,47.515 C134.186667,46.9516667 132.778333,46.41 131.24,45.89 C129.701667,45.37 128.174167,44.7741667 126.6575,44.1025 C125.140833,43.4308333 123.743333,42.5858333 122.465,41.5675 C121.186667,40.5491667 120.1575,39.2708333 119.3775,37.7325 C118.5975,36.1941667 118.2075,34.255 118.2075,31.915 C118.2075,29.0983333 118.89,26.6716667 120.255,24.635 C121.62,22.5983333 123.515833,21.0491667 125.9425,19.9875 C128.369167,18.9258333 131.164167,18.395 134.3275,18.395 C137.534167,18.395 140.47,18.9583333 143.135,20.085 C145.8,21.2116667 147.999167,22.75 149.7325,24.7 L143.1025,31.265 C141.715833,29.835 140.318333,28.7733333 138.91,28.08 C137.501667,27.3866667 135.909167,27.04 134.1325,27.04 C132.355833,27.04 130.9475,27.3758333 129.9075,28.0475 C128.8675,28.7191667 128.3475,29.6833333 128.3475,30.94 C128.3475,32.11 128.7375,33.0525 129.5175,33.7675 C130.2975,34.4825 131.326667,35.1 132.605,35.62 C133.883333,36.14 135.291667,36.66 136.83,37.18 C138.368333,37.7 139.895833,38.3066667 141.4125,39 C142.929167,39.6933333 144.326667,40.5708333 145.605,41.6325 C146.883333,42.6941667 147.9125,44.0375 148.6925,45.6625 C149.4725,47.2875 149.8625,49.2916667 149.8625,51.675 C149.8625,56.0516667 148.3025,59.4858333 145.1825,61.9775 C142.0625,64.4691667 137.750833,65.715 132.2475,65.715 Z" fill-rule="nonzero"></path>
            <path d="M197.1175,65 L178.5275,41.08 L196.5325,19.11 L209.1425,19.11 L188.8625,42.965 L188.8625,38.805 L209.7925,65 L197.1175,65 Z M169.3625,65 L169.3625,19.11 L179.5675,19.11 L179.5675,65 L169.3625,65 Z" fill-rule="nonzero"></path>
        </g>
    </g>
</svg>
